<?xml version="1.0" encoding="utf-8"?>
<!-- Generator: Adobe Illustrator 23.0.4, SVG Export Plug-In . SVG Version: 6.00 Build 0)  -->
<svg version="1.1" id="Layer_1" xmlns="http://www.w3.org/2000/svg" xmlns:xlink="http://www.w3.org/1999/xlink" x="0px" y="0px"
	 viewBox="0 0 490.06 94.92" style="enable-background:new 0 0 490.06 94.92;" xml:space="preserve">
<style type="text/css">
	.st0{fill:#5B5D5E;}
	.st1{fill:#64B045;}
	.st2{fill:url(#SVGID_1_);}
	.st3{fill:url(#SVGID_2_);}
</style>
<g>
	<g>
		<g>
			<path class="st0" d="M153.43,51.34c0.77,0.53,1.55,1.12,2.34,1.75c0.3,0.22,0.56,0.47,0.78,0.76c0.22,0.29,0.33,0.62,0.33,1.01
				c0,0.55-0.19,1.01-0.58,1.4c-0.38,0.38-0.85,0.58-1.4,0.58c-0.47,0-0.93-0.19-1.4-0.58c-1.12-0.82-2.27-1.62-3.45-2.38
				c-1.18-0.77-2.4-1.45-3.68-2.05c-1.27-0.6-2.6-1.08-3.97-1.44c-1.37-0.36-2.79-0.53-4.27-0.53h-8.18
				c-0.36,0.06-0.66,0.22-0.9,0.49c-0.25,0.27-0.37,0.62-0.37,1.03v3.49c0,0.55-0.2,1.01-0.6,1.4c-0.4,0.38-0.86,0.58-1.38,0.58
				c-0.55,0-1.01-0.19-1.4-0.58c-0.38-0.38-0.58-0.85-0.58-1.4v-3.94c0-0.68,0.13-1.34,0.39-1.95c0.26-0.62,0.61-1.15,1.05-1.6
				c0.44-0.45,0.96-0.81,1.56-1.07c0.6-0.26,1.26-0.39,1.97-0.39h21.78c0.41,0,0.77-0.14,1.09-0.43c0.31-0.29,0.47-0.65,0.47-1.09
				c0-0.41-0.16-0.77-0.47-1.07c-0.32-0.3-0.68-0.45-1.09-0.45h-24.78c-0.55,0-1.01-0.19-1.4-0.58c-0.38-0.38-0.58-0.85-0.58-1.4
				c0-0.55,0.19-1.01,0.58-1.4c0.38-0.38,0.85-0.58,1.4-0.58h24.61c0.77,0,1.49,0.14,2.16,0.43c0.67,0.29,1.26,0.68,1.77,1.17
				c0.51,0.49,0.9,1.07,1.19,1.73c0.29,0.66,0.43,1.37,0.43,2.14s-0.14,1.48-0.43,2.14c-0.29,0.66-0.68,1.23-1.19,1.73
				c-0.51,0.49-1.1,0.88-1.77,1.17c-0.67,0.29-1.39,0.43-2.16,0.43h-0.16C151.91,50.31,152.66,50.81,153.43,51.34z"/>
			<path class="st0" d="M195.67,54.86c0,0.55-0.19,1.01-0.58,1.4c-0.38,0.38-0.85,0.58-1.4,0.58c-0.55,0-1.01-0.19-1.4-0.58
				c-0.38-0.38-0.58-0.85-0.58-1.4V45.9c0-1.12-0.07-1.68-0.21-1.68c-0.11,0-0.49,0.37-1.15,1.11l-9.04,10.27
				c-0.36,0.41-0.79,0.72-1.31,0.92c-0.52,0.21-1.08,0.31-1.68,0.31c-0.6,0-1.16-0.1-1.68-0.31c-0.52-0.21-0.96-0.51-1.31-0.92
				l-9.04-10.27c-0.63-0.74-1.01-1.11-1.15-1.11c-0.14,0-0.21,0.56-0.21,1.68v8.96c0,0.55-0.19,1.01-0.58,1.4
				c-0.38,0.38-0.85,0.58-1.4,0.58s-1.01-0.19-1.4-0.58c-0.38-0.38-0.58-0.85-0.58-1.4v-12c0-1.1,0.32-2.03,0.95-2.79
				c0.63-0.77,1.49-1.15,2.59-1.15c0.66,0,1.25,0.16,1.77,0.49c0.52,0.33,1,0.73,1.44,1.19l9.45,10.77
				c0.14,0.14,0.31,0.28,0.51,0.43c0.21,0.15,0.42,0.23,0.64,0.23c0.22,0,0.43-0.08,0.64-0.23c0.21-0.15,0.38-0.29,0.51-0.43
				l9.41-10.77h0.04c0.38-0.52,0.85-0.93,1.4-1.23c0.55-0.3,1.15-0.45,1.81-0.45c1.1,0,1.96,0.38,2.59,1.15
				c0.63,0.77,0.95,1.7,0.95,2.79V54.86z"/>
			<path class="st0" d="M203.27,56.09c-0.41,0.49-0.92,0.74-1.52,0.74c-0.55,0-1.01-0.19-1.4-0.58c-0.38-0.38-0.58-0.85-0.58-1.4
				c0-0.49,0.14-0.89,0.41-1.19l9.99-13.44c0.47-0.63,1.08-1.14,1.85-1.54c0.77-0.4,1.59-0.6,2.47-0.6c0.82,0,1.6,0.18,2.34,0.53
				c0.74,0.36,1.34,0.85,1.81,1.48l9.98,13.35c0.16,0.19,0.3,0.4,0.41,0.64c0.11,0.23,0.16,0.49,0.16,0.76
				c0,0.55-0.19,1.01-0.58,1.4c-0.38,0.38-0.85,0.58-1.4,0.58c-0.66,0-1.18-0.26-1.56-0.78l-9.57-12.78
				c-0.19-0.22-0.43-0.46-0.72-0.72c-0.29-0.26-0.58-0.39-0.88-0.39c-0.3,0-0.6,0.13-0.88,0.39c-0.29,0.26-0.51,0.5-0.68,0.72
				L203.27,56.09z"/>
			<path class="st0" d="M258.37,52.89c0.93,0,1.7-0.17,2.3-0.51c0.6-0.34,1.07-0.76,1.42-1.25c0.34-0.49,0.58-1.03,0.7-1.62
				c0.12-0.59,0.18-1.13,0.18-1.62c0-0.49-0.06-1.03-0.18-1.62c-0.12-0.59-0.36-1.13-0.7-1.62c-0.34-0.49-0.82-0.91-1.42-1.25
				c-0.6-0.34-1.37-0.51-2.3-0.51h-23.09c-0.55,0-1.01-0.19-1.4-0.58c-0.38-0.38-0.58-0.85-0.58-1.4c0-0.55,0.19-1.01,0.58-1.4
				c0.38-0.38,0.85-0.58,1.4-0.58h23.96c1.18,0,2.23,0.27,3.16,0.82c0.93,0.55,1.73,1.25,2.38,2.12c0.66,0.86,1.16,1.82,1.5,2.88
				c0.34,1.05,0.51,2.1,0.51,3.14c0,1.01-0.16,2.04-0.49,3.08c-0.33,1.04-0.8,1.99-1.42,2.84c-0.62,0.85-1.36,1.55-2.24,2.12
				c-0.88,0.56-1.88,0.87-3,0.92h-24.37c-0.55,0-1.01-0.19-1.4-0.58c-0.38-0.38-0.58-0.85-0.58-1.4v-6.99c0-0.55,0.19-1.01,0.58-1.4
				c0.38-0.38,0.85-0.58,1.4-0.58c0.55,0,1.01,0.19,1.4,0.58c0.38,0.38,0.58,0.85,0.58,1.4v5.01H258.37z"/>
			<path class="st0" d="M273.37,56.09c-0.41,0.49-0.92,0.74-1.52,0.74c-0.55,0-1.01-0.19-1.4-0.58c-0.38-0.38-0.58-0.85-0.58-1.4
				c0-0.49,0.14-0.89,0.41-1.19l9.99-13.44c0.47-0.63,1.08-1.14,1.85-1.54c0.77-0.4,1.59-0.6,2.47-0.6c0.82,0,1.6,0.18,2.34,0.53
				c0.74,0.36,1.34,0.85,1.81,1.48l9.99,13.35c0.16,0.19,0.3,0.4,0.41,0.64c0.11,0.23,0.16,0.49,0.16,0.76
				c0,0.55-0.19,1.01-0.58,1.4c-0.38,0.38-0.85,0.58-1.4,0.58c-0.66,0-1.18-0.26-1.56-0.78l-9.57-12.78
				c-0.19-0.22-0.43-0.46-0.72-0.72c-0.29-0.26-0.58-0.39-0.88-0.39c-0.3,0-0.6,0.13-0.88,0.39c-0.29,0.26-0.51,0.5-0.68,0.72
				L273.37,56.09z"/>
			<path class="st0" d="M345.99,39.49c0.38,0.38,0.58,0.85,0.58,1.4c0,0.55-0.19,1.01-0.58,1.4c-0.38,0.38-0.85,0.58-1.4,0.58
				h-12.16v12c0,0.55-0.19,1.01-0.58,1.4c-0.38,0.38-0.85,0.58-1.4,0.58s-1.01-0.19-1.4-0.58c-0.38-0.38-0.58-0.85-0.58-1.4v-12
				h-12.33c-0.49-0.05-0.92-0.27-1.27-0.64s-0.53-0.81-0.53-1.34c0-0.55,0.19-1.01,0.58-1.4c0.38-0.38,0.85-0.58,1.4-0.58h28.27
				C345.14,38.91,345.6,39.11,345.99,39.49z"/>
			<path class="st0" d="M350.67,40.89c0-0.55,0.19-1.01,0.58-1.4c0.38-0.38,0.85-0.58,1.4-0.58h29.13c0.55,0,1.01,0.19,1.4,0.58
				c0.38,0.38,0.58,0.85,0.58,1.4c0,0.55-0.19,1.01-0.58,1.4s-0.85,0.58-1.4,0.58h-29.13c-0.55,0-1.01-0.19-1.4-0.58
				S350.67,41.43,350.67,40.89z M355.69,56.83c-0.6,0-1.21-0.13-1.81-0.39c-0.6-0.26-1.14-0.62-1.6-1.09
				c-0.47-0.47-0.85-1.03-1.15-1.68c-0.3-0.66-0.45-1.4-0.45-2.22v-3.7c0-0.74,0.21-1.23,0.64-1.48c0.42-0.25,1.09-0.37,1.99-0.37
				h27.57c0.55,0,1.01,0.19,1.4,0.58c0.38,0.38,0.58,0.85,0.58,1.4c0,0.55-0.19,1.01-0.58,1.4c-0.38,0.38-0.85,0.58-1.4,0.58h-26.26
				v2.01c0,0.27,0.12,0.51,0.35,0.72c0.23,0.21,0.54,0.31,0.92,0.31h25.89c0.55,0,1.01,0.19,1.4,0.58c0.38,0.38,0.58,0.85,0.58,1.4
				c0,0.55-0.19,1.01-0.58,1.4c-0.38,0.38-0.85,0.58-1.4,0.58H355.69z"/>
			<path class="st0" d="M387.86,47.87c0-1.04,0.17-2.09,0.51-3.14c0.34-1.05,0.84-2.01,1.5-2.88c0.66-0.86,1.45-1.57,2.38-2.12
				c0.93-0.55,1.99-0.82,3.16-0.82h23.96c0.55,0,1.01,0.19,1.4,0.58c0.38,0.38,0.58,0.85,0.58,1.4c0,0.55-0.19,1.01-0.58,1.4
				c-0.38,0.38-0.85,0.58-1.4,0.58h-23.09c-0.96,0-1.73,0.17-2.32,0.51c-0.59,0.34-1.05,0.76-1.4,1.25
				c-0.34,0.49-0.58,1.03-0.7,1.62c-0.12,0.59-0.18,1.13-0.18,1.62c0,0.49,0.06,1.03,0.18,1.62c0.12,0.59,0.36,1.13,0.7,1.62
				c0.34,0.49,0.81,0.91,1.4,1.25c0.59,0.34,1.36,0.51,2.32,0.51h23.09c0.55,0,1.01,0.19,1.4,0.58c0.38,0.38,0.58,0.85,0.58,1.4
				c0,0.55-0.19,1.01-0.58,1.4c-0.38,0.38-0.85,0.58-1.4,0.58h-24.37c-1.12,0-2.12-0.27-3-0.82c-0.88-0.55-1.62-1.25-2.24-2.12
				c-0.62-0.86-1.09-1.83-1.42-2.9C388.02,49.93,387.86,48.89,387.86,47.87z"/>
			<path class="st0" d="M457.06,56.25c-0.38,0.38-0.85,0.58-1.4,0.58c-0.55,0-1.01-0.19-1.4-0.58c-0.38-0.38-0.58-0.85-0.58-1.4
				v-5.01H429.4v5.01c0,0.55-0.19,1.01-0.58,1.4c-0.38,0.38-0.85,0.58-1.4,0.58c-0.55,0-1.01-0.19-1.4-0.58
				c-0.38-0.38-0.58-0.85-0.58-1.4V40.89c0-0.55,0.19-1.01,0.58-1.4c0.38-0.38,0.85-0.58,1.4-0.58c0.55,0,1.01,0.19,1.4,0.58
				c0.38,0.38,0.58,0.85,0.58,1.4v5.01h24.28v-5.01c0-0.55,0.19-1.01,0.58-1.4c0.38-0.38,0.85-0.58,1.4-0.58
				c0.55,0,1.01,0.19,1.4,0.58c0.38,0.38,0.58,0.85,0.58,1.4v13.97C457.63,55.41,457.44,55.87,457.06,56.25z"/>
		</g>
	</g>
	<g>
		<path class="st1" d="M316.22,64.66v-0.73h4.1v0.73h-1.67v6.75h-0.76v-6.75H316.22z"/>
		<path class="st1" d="M324.53,63.92h4.29v0.73h-3.54V67h3.51v0.73h-3.51v2.94h3.51v0.73h-4.26V63.92z"/>
		<path class="st1" d="M340.21,65.31l-0.59,0.45c-0.33-0.42-0.72-0.75-1.17-0.96s-0.96-0.33-1.5-0.33c-0.6,0-1.15,0.14-1.66,0.43
			s-0.9,0.67-1.18,1.15s-0.42,1.03-0.42,1.63c0,0.91,0.31,1.67,0.94,2.28s1.42,0.92,2.37,0.92c1.05,0,1.92-0.41,2.63-1.23l0.59,0.45
			c-0.37,0.47-0.84,0.84-1.4,1.1c-0.56,0.26-1.18,0.39-1.87,0.39c-1.31,0-2.34-0.44-3.1-1.31c-0.63-0.74-0.95-1.62-0.95-2.67
			c0-1.1,0.38-2.02,1.15-2.76s1.73-1.12,2.89-1.12c0.7,0,1.33,0.14,1.89,0.41C339.39,64.43,339.85,64.81,340.21,65.31z"/>
		<path class="st1" d="M344.82,63.92h0.75v3.14h3.81v-3.14h0.75v7.48h-0.75v-3.61h-3.81v3.61h-0.75V63.92z"/>
		<path class="st1" d="M355.08,71.41v-7.48h0.16l4.98,5.74v-5.74h0.74v7.48h-0.17l-4.94-5.67v5.67H355.08z"/>
		<path class="st1" d="M365.8,63.92h0.75v7.48h-0.75V63.92z"/>
		<path class="st1" d="M378.36,65.31l-0.59,0.45c-0.33-0.42-0.72-0.75-1.17-0.96c-0.46-0.22-0.96-0.33-1.5-0.33
			c-0.6,0-1.15,0.14-1.66,0.43s-0.9,0.67-1.18,1.15s-0.42,1.03-0.42,1.63c0,0.91,0.31,1.67,0.94,2.28s1.42,0.92,2.37,0.92
			c1.05,0,1.92-0.41,2.63-1.23l0.59,0.45c-0.37,0.47-0.84,0.84-1.4,1.1c-0.56,0.26-1.18,0.39-1.87,0.39c-1.31,0-2.34-0.44-3.1-1.31
			c-0.63-0.74-0.95-1.62-0.95-2.67c0-1.1,0.38-2.02,1.15-2.76s1.73-1.12,2.89-1.12c0.7,0,1.33,0.14,1.89,0.41
			C377.54,64.43,378,64.81,378.36,65.31z"/>
		<path class="st1" d="M386.04,63.92l3.49,7.48h-0.81l-1.18-2.46h-3.22l-1.17,2.46h-0.83l3.54-7.48H386.04z M385.95,65.51
			l-1.28,2.71h2.56L385.95,65.51z"/>
		<path class="st1" d="M393.82,63.92h0.75v6.76h2.88v0.72h-3.63V63.92z"/>
		<path class="st1" d="M406.99,70.01l0.64-0.38c0.45,0.82,0.96,1.24,1.55,1.24c0.25,0,0.49-0.06,0.71-0.18
			c0.22-0.12,0.39-0.27,0.5-0.47c0.12-0.2,0.17-0.41,0.17-0.63c0-0.25-0.08-0.5-0.25-0.74c-0.23-0.33-0.66-0.73-1.28-1.2
			c-0.62-0.47-1.01-0.81-1.16-1.02c-0.26-0.35-0.4-0.73-0.4-1.14c0-0.33,0.08-0.62,0.23-0.89c0.16-0.27,0.38-0.48,0.66-0.63
			s0.59-0.23,0.92-0.23c0.35,0,0.68,0.09,0.99,0.26c0.31,0.17,0.63,0.5,0.97,0.96l-0.61,0.46c-0.28-0.37-0.52-0.62-0.72-0.74
			s-0.41-0.18-0.65-0.18c-0.3,0-0.55,0.09-0.74,0.27c-0.19,0.18-0.29,0.41-0.29,0.68c0,0.16,0.03,0.32,0.1,0.47
			c0.07,0.15,0.19,0.32,0.37,0.5c0.1,0.09,0.42,0.34,0.97,0.75c0.65,0.48,1.09,0.9,1.33,1.28s0.36,0.75,0.36,1.12
			c0,0.54-0.21,1.01-0.62,1.41s-0.91,0.6-1.5,0.6c-0.45,0-0.87-0.12-1.24-0.36C407.64,70.99,407.3,70.58,406.99,70.01z"/>
		<path class="st1" d="M416.07,63.92h1.49c0.85,0,1.43,0.04,1.73,0.11c0.43,0.11,0.78,0.32,1.05,0.65c0.27,0.33,0.41,0.74,0.41,1.23
			c0,0.5-0.13,0.91-0.4,1.23c-0.26,0.32-0.63,0.54-1.09,0.65c-0.34,0.08-0.97,0.12-1.9,0.12h-0.53v3.48h-0.75V63.92z M416.82,64.66
			v2.54l1.27,0.02c0.51,0,0.89-0.05,1.12-0.14c0.24-0.09,0.42-0.24,0.56-0.45c0.14-0.21,0.2-0.44,0.2-0.7c0-0.25-0.07-0.48-0.2-0.69
			c-0.14-0.21-0.31-0.36-0.54-0.44s-0.59-0.13-1.09-0.13H416.82z"/>
		<path class="st1" d="M427.65,63.92l3.49,7.48h-0.81l-1.18-2.46h-3.22l-1.17,2.46h-0.83l3.54-7.48H427.65z M427.56,65.51
			l-1.28,2.71h2.56L427.56,65.51z"/>
		<path class="st1" d="M435.47,63.92h1.49c0.83,0,1.39,0.03,1.69,0.1c0.44,0.1,0.81,0.32,1.08,0.65c0.28,0.33,0.42,0.75,0.42,1.24
			c0,0.41-0.1,0.77-0.29,1.08c-0.19,0.31-0.47,0.54-0.82,0.7c-0.36,0.16-0.85,0.24-1.48,0.24l2.69,3.47h-0.92l-2.69-3.47h-0.42v3.47
			h-0.75V63.92z M436.22,64.66v2.54l1.29,0.01c0.5,0,0.87-0.05,1.11-0.14c0.24-0.09,0.43-0.25,0.56-0.46c0.13-0.21,0.2-0.44,0.2-0.7
			c0-0.25-0.07-0.48-0.2-0.68c-0.14-0.21-0.31-0.35-0.54-0.44c-0.22-0.09-0.59-0.13-1.1-0.13H436.22z"/>
		<path class="st1" d="M444.88,63.92h0.76v2.81l2.99-2.81h1l-3.59,3.36l3.87,4.13h-1l-3.28-3.49v3.49h-0.76V63.92z"/>
		<path class="st1" d="M453.38,70.01l0.64-0.38c0.45,0.82,0.96,1.24,1.55,1.24c0.25,0,0.49-0.06,0.71-0.18
			c0.22-0.12,0.39-0.27,0.5-0.47c0.12-0.2,0.17-0.41,0.17-0.63c0-0.25-0.08-0.5-0.25-0.74c-0.23-0.33-0.66-0.73-1.28-1.2
			c-0.62-0.47-1.01-0.81-1.16-1.02c-0.26-0.35-0.4-0.73-0.4-1.14c0-0.33,0.08-0.62,0.23-0.89s0.38-0.48,0.66-0.63
			s0.59-0.23,0.92-0.23c0.35,0,0.68,0.09,0.99,0.26c0.31,0.17,0.63,0.5,0.97,0.96l-0.61,0.46c-0.28-0.37-0.52-0.62-0.72-0.74
			c-0.2-0.12-0.41-0.18-0.65-0.18c-0.3,0-0.55,0.09-0.74,0.27c-0.19,0.18-0.29,0.41-0.29,0.68c0,0.16,0.03,0.32,0.1,0.47
			c0.07,0.15,0.19,0.32,0.37,0.5c0.1,0.09,0.42,0.34,0.97,0.75c0.65,0.48,1.09,0.9,1.33,1.28s0.36,0.75,0.36,1.12
			c0,0.54-0.21,1.01-0.62,1.41c-0.41,0.4-0.91,0.6-1.5,0.6c-0.45,0-0.87-0.12-1.24-0.36C454.04,70.99,453.69,70.58,453.38,70.01z"/>
	</g>
	<g>
		<linearGradient id="SVGID_1_" gradientUnits="userSpaceOnUse" x1="63.1668" y1="106.5406" x2="110.9838" y2="26.9598">
			<stop  offset="0" style="stop-color:#414042"/>
			<stop  offset="0.1459" style="stop-color:#434345"/>
			<stop  offset="0.2485" style="stop-color:#4C4C4E"/>
			<stop  offset="0.3379" style="stop-color:#5A5B5D"/>
			<stop  offset="0.4197" style="stop-color:#6C6D70"/>
			<stop  offset="0.4956" style="stop-color:#818386"/>
			<stop  offset="0.5049" style="stop-color:#848689"/>
			<stop  offset="0.6834" style="stop-color:#6A6B6E"/>
			<stop  offset="0.8886" style="stop-color:#4D4D4F"/>
			<stop  offset="1" style="stop-color:#414042"/>
		</linearGradient>
		<path class="st2" d="M84.56,14.04l39.96,69.06c0.79,1.37-0.71,2.91-2.1,2.16L99.8,73c-0.36-0.2-0.63-0.53-0.75-0.92l-17.34-56.8
			C81.17,13.5,83.63,12.43,84.56,14.04z M78.44,33.49L77.65,7.77c-0.05-1.58-2.14-2.1-2.92-0.73L35.16,76.33
			c-0.92,1.62,1.24,3.2,2.51,1.84L78.03,34.6C78.31,34.3,78.46,33.9,78.44,33.49z M54.94,72.26l-21.9,13.51
			c-1.34,0.83-0.75,2.9,0.83,2.9l79.79-0.24c1.86-0.01,2.16-2.67,0.34-3.09L56.11,72.07C55.71,71.98,55.29,72.05,54.94,72.26z"/>
		<linearGradient id="SVGID_2_" gradientUnits="userSpaceOnUse" x1="84.2379" y1="54.8469" x2="71.6724" y2="74.9559">
			<stop  offset="0" style="stop-color:#93C23E"/>
			<stop  offset="0.1322" style="stop-color:#B1CE35"/>
			<stop  offset="0.2759" style="stop-color:#CDDA29"/>
			<stop  offset="0.3585" style="stop-color:#D7DF23"/>
			<stop  offset="0.9783" style="stop-color:#2A9F48"/>
		</linearGradient>
		<path class="st3" d="M75.6,48.7l-8.55,16.37c-0.86,1.64,0.33,3.6,2.18,3.6h17.48c1.87,0,3.06-2,2.16-3.64l-8.94-16.37
			C79,46.93,76.51,46.96,75.6,48.7z"/>
	</g>
</g>
</svg>
