<svg width="184" height="25" viewBox="0 0 184 25" fill="none" xmlns="http://www.w3.org/2000/svg"><path d="M14.8303 21.6561C12.9305 23.7424 10.818 24.3047 8.39364 24.3047C5.81328 24.3047 3.85675 23.3873 2.24048 21.6561C-0.0846711 19.1703 0.000395453 15.8559 0.000395453 12.3047C0.000395453 8.75352 -0.0846711 5.43909 2.24048 2.95327C3.85675 1.23687 5.72822 0.304688 8.39364 0.304688C14.0931 0.304688 16.5033 4.25537 17.0421 8.13206H11.5695C11.1299 6.34168 10.2651 5.48348 8.39364 5.48348C7.4012 5.48348 6.64977 5.94217 6.25279 6.50444C5.75657 7.19988 5.44466 7.99889 5.44466 12.3047C5.44466 16.6105 5.75657 17.4391 6.25279 18.1345C6.64977 18.6968 7.4012 19.1259 8.39364 19.1259C9.54204 19.1259 10.3218 18.7708 10.818 18.1937C11.4419 17.5279 11.6545 16.5661 11.6545 15.6783V15.3528H8.39364V10.5143H17.0704V13.7991C17.0704 17.6166 16.5033 19.8361 14.8303 21.6561Z" fill="white"></path><path d="M50.3333 24.1124L46.406 15.3232H44.5771V24.1124H39.1328V0.49707H47.8947C52.8144 0.49707 55.4514 4.211 55.4514 8.0877C55.4514 11.2986 53.58 13.3257 51.8503 14.2579L56.6424 24.1124H50.3333ZM47.6537 5.70546H44.5771V10.4699H47.6537C49.1423 10.4699 50.0072 9.31581 50.0072 8.0877C50.0072 6.85959 49.1423 5.70546 47.6537 5.70546Z" fill="white"></path><path d="M72.6036 21.7893C71.0865 23.4169 68.9315 24.1124 66.6347 24.1124H58.4258V0.49707H66.6347C68.9315 0.49707 71.0865 1.19251 72.6036 2.82013C75.1839 5.57229 74.9004 8.59078 74.9004 12.3047C74.9004 16.0187 75.1839 19.0371 72.6036 21.7893ZM68.8748 6.99275C68.3786 6.20854 67.6272 5.66107 66.2661 5.66107H63.87V18.9336H66.2661C67.6413 18.9336 68.3786 18.4009 68.8748 17.6019C69.3001 16.936 69.4703 16.2998 69.4703 12.2899C69.4703 8.28006 69.3143 7.6438 68.8748 6.97796" fill="white"></path><path d="M85.2071 9.44898L87.0644 15.7523H83.2081L85.2071 9.44898ZM87.1637 0.49707H82.967L74.9141 24.1124H80.5993L81.691 20.6056H86.2846L87.4047 17.3503L89.7582 24.1124H95.2166L87.1637 0.49707Z" fill="white"></path><path d="M27.3634 9.44898L29.2348 15.7523H25.3785L27.3634 9.44898ZM29.3199 0.49707H25.1233L17.0703 24.1124H22.7556L23.8473 20.6056H28.4409L29.5609 17.3503L31.9144 24.1124H37.3729L29.3199 0.49707Z" fill="white"></path><path d="M107.086 0.49707L104.193 12.9706L100.621 0.49707H96.7642L93.1914 12.941L96.027 21.1679L98.6924 12.4675L102.265 24.1124H106.717L112.771 0.49707H107.086Z" fill="white"></path><path d="M181.463 21.7893C179.946 23.4169 177.791 24.1124 175.494 24.1124H167.285V0.49707H175.494C177.805 0.49707 179.946 1.19251 181.463 2.82013C184.043 5.57229 183.76 8.59078 183.76 12.3047C183.76 16.0187 184.029 19.0371 181.463 21.7893ZM177.734 6.99275C177.238 6.20854 176.501 5.66107 175.125 5.66107H172.729V18.9336H175.125C176.501 18.9336 177.238 18.4009 177.734 17.6019C178.174 16.936 178.33 16.2998 178.33 12.2899C178.33 8.28006 178.174 7.6438 177.734 6.97796" fill="white"></path><path d="M127.403 21.6561C125.787 23.3873 123.915 24.3047 121.222 24.3047C118.528 24.3047 116.656 23.3873 115.026 21.6561C112.687 19.1703 112.786 15.8559 112.786 12.3047C112.786 8.75352 112.687 5.43909 115.026 2.95327C116.642 1.22207 118.514 0.304688 121.222 0.304688C123.929 0.304688 125.787 1.23687 127.403 2.95327C129.728 5.43909 129.629 8.75352 129.629 12.3047C129.629 15.8559 129.728 19.1703 127.403 21.6561ZM123.391 6.50444C122.994 5.94217 122.214 5.48348 121.222 5.48348C120.229 5.48348 119.449 5.95697 119.038 6.50444C118.542 7.19988 118.23 7.99889 118.23 12.3047C118.23 16.6105 118.542 17.3799 119.038 18.0753C119.449 18.6376 120.229 19.1407 121.222 19.1407C122.214 19.1407 122.994 18.6376 123.391 18.0753C123.887 17.3799 124.199 16.6253 124.199 12.3047C124.199 7.9841 123.887 7.19988 123.391 6.50444Z" fill="white"></path><path d="M142.628 24.1124L138.715 15.3232H136.886V24.1124H131.441V0.49707H140.217C145.123 0.49707 147.774 4.211 147.774 8.0877C147.774 11.2986 145.917 13.3257 144.173 14.2579L148.965 24.1124H142.642H142.628ZM139.948 5.70546H136.871V10.4699H139.948C141.437 10.4699 142.316 9.31581 142.316 8.0877C142.316 6.85959 141.437 5.70546 139.948 5.70546Z" fill="white"></path><path d="M165.485 18.9484H156.184V0.49707H150.754V24.1124H165.485V18.9484Z" fill="white"></path></svg>