<svg xmlns="http://www.w3.org/2000/svg" width="220" height="44" viewBox="0 0 220 44" fill="none"><g clip-path="url(#clip0_1273_51040)"><g clip-path="url(#clip1_1273_51040)"><path d="M37.3298 18.7932C37.3298 18.7932 37.3298 18.7932 37.3264 18.7932C35.7721 18.7932 34.2398 19.2046 32.8971 19.9801L32.1454 20.4135C27.9532 22.833 22.7451 22.833 18.5546 20.4135L17.5234 19.8176V21.1822L17.9637 21.4362C20.2426 22.7535 22.7959 23.4104 25.3508 23.4104C27.9058 23.4104 30.459 22.7518 32.7363 21.4362L33.488 21.0028C34.6529 20.3306 35.9803 19.9733 37.3264 19.9733C37.3264 19.9733 37.3264 19.9733 37.3298 19.9733C38.6741 19.9733 40.0032 20.3306 41.1698 21.0028L41.4661 21.1738V19.8362C40.1912 19.1623 38.7723 18.7932 37.3298 18.7932Z" fill="white"></path><path d="M37.3295 21.553C37.3295 21.553 37.3295 21.553 37.3261 21.553C35.7735 21.553 34.2412 21.9644 32.8952 22.7399L32.1434 23.1733C27.9512 25.5928 22.7431 25.5928 18.5526 23.1733L17.5215 22.5773V23.9403L17.9617 24.1943C20.2407 25.5098 22.7939 26.1685 25.3489 26.1685C27.9038 26.1685 30.4571 25.5115 32.736 24.1943L33.4878 23.7608C34.6526 23.087 35.9818 22.7331 37.3278 22.7331C37.3278 22.7331 37.3278 22.7331 37.3312 22.7331C38.6772 22.7331 40.0047 23.0903 41.1712 23.7625L41.4675 23.9335V22.596C40.1943 21.9221 38.7754 21.553 37.3312 21.553H37.3295Z" fill="white"></path><path d="M37.3281 24.3127C35.7755 24.3127 34.2432 24.7242 32.8971 25.4996L32.1454 25.9331C27.9532 28.3509 22.7451 28.3526 18.5546 25.9331L17.5234 25.3371V26.7001L17.9637 26.9557C20.2426 28.2713 22.7959 28.9299 25.3508 28.9299C27.9058 28.9299 30.459 28.2713 32.738 26.9557L33.4897 26.5223C34.6546 25.8484 35.9837 25.4946 37.3298 25.4946C37.3298 25.4946 37.3298 25.4946 37.3331 25.4946C38.6792 25.4946 40.0066 25.8501 41.1732 26.524L41.4695 26.695V25.3557C40.1962 24.6818 38.7774 24.3144 37.3331 24.3144H37.3298L37.3281 24.3127Z" fill="white"></path><path d="M37.3314 16.0316C37.3314 16.0316 37.3298 16.0316 37.3281 16.0316C35.7755 16.0316 34.2432 16.443 32.8971 17.2202L32.1454 17.6536C27.9532 20.0731 22.7451 20.0731 18.5546 17.6536L17.5234 17.0577V18.4223L17.9637 18.6763C20.2426 19.9936 22.7959 20.6505 25.3508 20.6505C27.9058 20.6505 30.459 19.9936 32.7363 18.6763L33.488 18.2429C34.6546 17.5707 35.982 17.2134 37.3281 17.2134C37.3281 17.2134 37.3281 17.2134 37.3298 17.2134C38.6758 17.2134 40.0049 17.5707 41.1698 18.2429L41.4661 18.4139V17.0763C40.1929 16.4024 38.774 16.0333 37.3314 16.0333V16.0316Z" fill="white"></path><path d="M37.3295 13.2718C37.3295 13.2718 37.3295 13.2718 37.3261 13.2718C35.7735 13.2718 34.2412 13.6833 32.8952 14.4587L32.1434 14.8922C27.9512 17.3117 22.7431 17.31 18.5526 14.8922L17.5215 14.2962V15.6592L17.9617 15.9131C20.2407 17.2304 22.7939 17.8873 25.3489 17.8873C27.9038 17.8873 30.457 17.2304 32.7343 15.9131L33.4861 15.4797C34.651 14.8075 35.9801 14.452 37.3261 14.452C37.3261 14.452 37.3261 14.452 37.3295 14.452C38.6755 14.452 40.003 14.8075 41.1695 15.4797L41.4658 15.6507V14.3114C40.1926 13.6376 38.7737 13.2701 37.3295 13.2701V13.2718Z" fill="white"></path><path d="M37.3317 27.0726C37.3317 27.0726 37.33 27.0726 37.3283 27.0726C35.774 27.0726 34.2434 27.4841 32.8991 28.2612L32.1473 28.6947C27.9551 31.1142 22.747 31.1142 18.5565 28.6947L17.5254 28.0987V29.4616L17.9656 29.7173C20.2446 31.0329 22.7978 31.6915 25.3528 31.6915C27.9077 31.6915 30.461 31.0329 32.7382 29.7173L33.49 29.2839C34.6549 28.6117 35.9823 28.2561 37.33 28.2544C38.6761 28.2544 40.0052 28.6117 41.17 29.2839L41.4663 29.4549V28.1156C40.1931 27.4417 38.7743 27.0743 37.3317 27.0726Z" fill="white"></path><path d="M-0.0117188 1.20996V42.6867H41.4651V29.4549L41.1688 29.2839C40.0022 28.6117 38.6748 28.2561 37.3287 28.2544C35.981 28.2544 34.6536 28.6117 33.4887 29.2839L32.7369 29.7173C30.458 31.0329 27.9047 31.6915 25.3515 31.6915C22.7982 31.6915 20.2433 31.0329 17.9643 29.7173L17.5241 29.4616V28.0987L18.5552 28.6947C22.7474 31.1158 27.9555 31.1141 32.146 28.6947L32.8978 28.2612C34.2421 27.4841 35.7744 27.0743 37.327 27.0726C37.327 27.0726 37.3287 27.0726 37.3304 27.0726C38.773 27.0726 40.1918 27.4417 41.4651 28.1156V26.6951L41.1688 26.5241C40.0039 25.8502 38.6748 25.4963 37.3287 25.4963C37.3287 25.4963 37.3287 25.4963 37.3253 25.4963C35.9793 25.4963 34.6519 25.8519 33.4853 26.5241L32.7336 26.9575C30.4546 28.2731 27.9013 28.9317 25.3464 28.9317C22.7915 28.9317 20.2382 28.2731 17.9592 26.9575L17.519 26.7018V25.3389L18.5501 25.9348C22.7424 28.3543 27.9487 28.3526 32.141 25.9348L32.8927 25.5014C34.2371 24.7259 35.7693 24.3145 37.3236 24.3145H37.327C38.7696 24.3145 40.1884 24.6836 41.4634 25.3558V23.9352L41.1671 23.7642C40.0005 23.0904 38.6731 22.7348 37.327 22.7348C37.327 22.7348 37.327 22.7348 37.3236 22.7348C35.9776 22.7348 34.6502 23.0904 33.4836 23.7625L32.7319 24.196C30.4529 25.5116 27.8996 26.1702 25.3447 26.1702C22.7898 26.1702 20.2365 25.5133 17.9575 24.196L17.5173 23.942V22.579L18.5485 23.175C22.7407 25.5945 27.9471 25.5945 32.1393 23.175L32.891 22.7416C34.2354 21.9644 35.7677 21.5547 37.322 21.5547C37.322 21.5547 37.322 21.5547 37.3253 21.5547C38.7696 21.5547 40.1884 21.9238 41.4617 22.5977V21.1754L41.1654 21.0044C39.9971 20.3323 38.6697 19.975 37.3253 19.975C37.3253 19.975 37.3253 19.975 37.322 19.975C35.9759 19.975 34.6485 20.3323 33.4836 21.0044L32.7319 21.4379C30.4546 22.7534 27.8996 23.4121 25.3464 23.4121C22.7931 23.4121 20.2382 22.7551 17.9592 21.4379L17.519 21.1839V19.8192L18.5501 20.4152C22.7424 22.8347 27.9504 22.8347 32.141 20.4152L32.8927 19.9818C34.2371 19.2046 35.7693 18.7949 37.322 18.7949C37.322 18.7949 37.322 18.7949 37.3253 18.7949C38.7662 18.7949 40.185 19.164 41.4617 19.8379V18.4156L41.1654 18.2446C39.9988 17.5724 38.6714 17.2169 37.3253 17.2152C37.3253 17.2152 37.3253 17.2152 37.3236 17.2152C35.9793 17.2152 34.6502 17.5724 33.4836 18.2446L32.7319 18.6781C30.4529 19.9936 27.8996 20.6523 25.3464 20.6523C22.7931 20.6523 20.2382 19.9953 17.9592 18.6781L17.519 18.4241V17.0594L18.5501 17.6554C22.7424 20.0749 27.9504 20.0766 32.141 17.6554L32.8927 17.222C34.2388 16.4448 35.771 16.0334 37.3236 16.0334C37.3236 16.0334 37.3253 16.0334 37.327 16.0334C38.7696 16.0334 40.1884 16.4025 41.4617 17.0763V15.6541L41.1654 15.4831C40.0005 14.8109 38.6714 14.4554 37.3253 14.4554C37.3253 14.4554 37.3253 14.4554 37.322 14.4554C35.9759 14.4554 34.6485 14.8109 33.4819 15.4831L32.7302 15.9166C30.4512 17.2321 27.898 17.8907 25.3447 17.8907C22.7915 17.8907 20.2365 17.2338 17.9575 15.9166L17.5173 15.6626V14.2996L18.5485 14.8956C22.7407 17.3151 27.9487 17.3151 32.1393 14.8956L32.891 14.4621C34.2354 13.685 35.7677 13.2753 37.322 13.2753C37.322 13.2753 37.322 13.2753 37.3253 13.2753C38.7679 13.2753 40.1867 13.6444 41.4617 14.3165V1.20996H-0.0117188Z" fill="#ED5C2B"></path></g><g clip-path="url(#clip2_1273_51040)"><path d="M53.7287 15.9273C53.9629 16.3798 54.2765 16.7489 54.6694 17.0307C55.0584 17.3125 55.5188 17.5189 56.0427 17.6578C56.5706 17.7928 57.1143 17.8603 57.674 17.8603C58.055 17.8603 58.4638 17.8285 58.9004 17.765C59.337 17.7015 59.7419 17.5785 60.1229 17.3959C60.5039 17.2133 60.8215 16.9672 61.0755 16.6497C61.3295 16.3322 61.4565 15.9273 61.4565 15.4391C61.4565 14.9112 61.2898 14.4865 60.9524 14.1611C60.6151 13.8356 60.1745 13.5618 59.6307 13.3435C59.087 13.1252 58.4718 12.9346 57.7811 12.7719C57.0905 12.6092 56.392 12.4266 55.6855 12.2281C54.9591 12.0456 54.2526 11.8233 53.562 11.5613C52.8714 11.2994 52.2562 10.958 51.7124 10.5413C51.1687 10.1245 50.7281 9.60459 50.3947 8.97748C50.0573 8.35037 49.8906 7.59624 49.8906 6.70717C49.8906 5.71094 50.105 4.84171 50.5297 4.10743C50.9543 3.37315 51.514 2.76192 52.2046 2.26975C52.8952 1.78156 53.6732 1.4164 54.5424 1.18223C55.4116 0.948052 56.2848 0.828979 57.154 0.828979C58.1701 0.828979 59.1465 0.944083 60.0792 1.17032C61.012 1.39656 61.8455 1.76568 62.5678 2.27372C63.2942 2.78176 63.8697 3.42872 64.2944 4.21857C64.7191 5.00841 64.9334 5.96496 64.9334 7.0882H60.7976C60.7619 6.50872 60.6389 6.02846 60.4285 5.64743C60.2182 5.2664 59.9443 4.96872 59.599 4.75042C59.2537 4.53212 58.8607 4.37733 58.4162 4.28604C57.9717 4.19475 57.4874 4.15109 56.9596 4.15109C56.6142 4.15109 56.2689 4.18681 55.9236 4.25826C55.5783 4.3297 55.2648 4.45671 54.983 4.63929C54.7012 4.82186 54.4709 5.0481 54.2884 5.318C54.1058 5.58789 54.0145 5.9332 54.0145 6.34996C54.0145 6.73099 54.0859 7.04057 54.2328 7.27475C54.3797 7.50892 54.6654 7.72722 55.0901 7.92965C55.5148 8.1281 56.1062 8.33052 56.8603 8.52898C57.6144 8.72743 58.5988 8.98145 59.8133 9.29104C60.1745 9.36248 60.6786 9.49346 61.3216 9.68397C61.9645 9.87449 62.6036 10.1801 63.2386 10.5969C63.8737 11.0136 64.4214 11.5733 64.8858 12.2718C65.3462 12.9704 65.5804 13.8634 65.5804 14.9509C65.5804 15.84 65.4057 16.6656 65.0644 17.4276C64.7191 18.1897 64.2071 18.8486 63.5284 19.4003C62.8497 19.952 62.0042 20.3846 60.9961 20.6942C59.988 21.0038 58.825 21.1586 57.4993 21.1586C56.4277 21.1586 55.3918 21.0276 54.3836 20.7656C53.3755 20.5037 52.4864 20.0909 51.7164 19.5273C50.9464 18.9637 50.3312 18.2492 49.8787 17.376C49.4263 16.5028 49.208 15.4709 49.2278 14.2762H53.3636C53.3636 14.9271 53.4826 15.4828 53.7168 15.9353L53.7287 15.9273Z" fill="white"></path><path d="M71.3313 1.28931V20.7139H67.0605V1.28931H71.3313Z" fill="white"></path><path d="M73.0532 1.28931H78.0026L81.8129 7.49296L85.7581 1.28931H90.4377L84.2062 10.569L90.9814 20.7179H85.8931L81.6462 13.9983L77.3199 20.7179H72.5332L79.3084 10.5412L73.0532 1.28931Z" fill="white"></path><path d="M110.193 1.28931C111.062 1.28931 111.848 1.42822 112.547 1.71003C113.245 1.99183 113.845 2.37683 114.341 2.86503C114.841 3.35322 115.222 3.9208 115.484 4.56379C115.746 5.20678 115.877 5.90137 115.877 6.64358C115.877 7.78667 115.635 8.77497 115.155 9.60848C114.674 10.442 113.888 11.077 112.801 11.5136V11.5692C113.329 11.7161 113.761 11.9383 114.107 12.236C114.452 12.5337 114.734 12.8909 114.948 13.2957C115.163 13.7006 115.325 14.1531 115.424 14.6413C115.524 15.1295 115.591 15.6216 115.627 16.1098C115.647 16.4194 115.663 16.7806 115.682 17.1973C115.698 17.6141 115.73 18.0388 115.778 18.4754C115.821 18.912 115.893 19.3248 115.996 19.7137C116.095 20.1027 116.246 20.4361 116.445 20.706H112.174C111.94 20.0908 111.793 19.3565 111.737 18.5032C111.682 17.6498 111.602 16.8362 111.491 16.0542C111.344 15.0382 111.039 14.296 110.566 13.8236C110.094 13.3513 109.324 13.1171 108.252 13.1171H103.982V20.706H99.7109V1.28931H110.185H110.193ZM108.669 10.0768C109.649 10.0768 110.384 9.85853 110.872 9.42193C111.36 8.98533 111.606 8.27884 111.606 7.29848C111.606 6.31812 111.36 5.67116 110.872 5.2425C110.384 4.81781 109.649 4.60348 108.669 4.60348H103.99V10.0729H108.669V10.0768Z" fill="white"></path><path d="M122.325 1.28931V20.7139H118.055V1.28931H122.325Z" fill="white"></path><path d="M129.791 20.7139L123.504 1.28931H127.886L132.212 14.9469H132.268L136.645 1.28931H141.055L134.605 20.7139H129.791Z" fill="white"></path><path d="M156.738 1.28931V4.88132H146.482V9.04487H155.896V12.363H146.482V17.1259H156.956V20.7179H142.211V1.28931H156.742H156.738Z" fill="white"></path><path d="M168.844 1.28931C169.713 1.28931 170.499 1.42822 171.197 1.71003C171.896 1.99183 172.495 2.37683 172.991 2.86503C173.491 3.35322 173.872 3.9208 174.134 4.56379C174.396 5.20678 174.527 5.90137 174.527 6.64358C174.527 7.78667 174.285 8.77497 173.805 9.60848C173.325 10.442 172.539 11.077 171.451 11.5136V11.5692C171.979 11.7161 172.412 11.9383 172.757 12.236C173.102 12.5337 173.384 12.8909 173.599 13.2957C173.813 13.7006 173.976 14.1531 174.075 14.6413C174.174 15.1295 174.242 15.6216 174.277 16.1098C174.297 16.4194 174.313 16.7806 174.333 17.1973C174.349 17.6141 174.38 18.0388 174.428 18.4754C174.472 18.912 174.543 19.3248 174.646 19.7137C174.746 20.1027 174.896 20.4361 175.095 20.706H170.824C170.59 20.0908 170.443 19.3565 170.388 18.5032C170.332 17.6498 170.253 16.8362 170.142 16.0542C169.995 15.0382 169.689 14.296 169.217 13.8236C168.744 13.3513 167.974 13.1171 166.903 13.1171H162.632V20.706H158.361V1.28931H168.836H168.844ZM167.32 10.0768C168.3 10.0768 169.034 9.85853 169.522 9.42193C170.011 8.98533 170.257 8.27884 170.257 7.29848C170.257 6.31812 170.011 5.67116 169.522 5.2425C169.034 4.81781 168.3 4.60348 167.32 4.60348H162.64V10.0729H167.32V10.0768Z" fill="white"></path><path d="M180.108 15.9273C180.342 16.3798 180.655 16.7489 181.048 17.0307C181.437 17.3125 181.894 17.5189 182.421 17.6578C182.945 17.7928 183.493 17.8603 184.053 17.8603C184.434 17.8603 184.843 17.8285 185.275 17.765C185.712 17.7015 186.117 17.5785 186.502 17.3959C186.883 17.2133 187.2 16.9672 187.454 16.6497C187.708 16.3322 187.835 15.9273 187.835 15.4391C187.835 14.9112 187.669 14.4865 187.331 14.1611C186.994 13.8356 186.557 13.5618 186.014 13.3435C185.47 13.1252 184.851 12.9346 184.164 12.7719C183.477 12.6092 182.775 12.4266 182.068 12.2281C181.342 12.0456 180.635 11.8233 179.945 11.5613C179.254 11.2994 178.639 10.958 178.095 10.5413C177.551 10.1245 177.111 9.60459 176.777 8.97748C176.444 8.35037 176.273 7.59624 176.273 6.70717C176.273 5.71094 176.488 4.84171 176.912 4.10743C177.337 3.37315 177.897 2.76192 178.583 2.26975C179.27 1.77759 180.052 1.4164 180.925 1.18223C181.794 0.948052 182.668 0.828979 183.537 0.828979C184.553 0.828979 185.529 0.944083 186.462 1.17032C187.395 1.39656 188.224 1.76568 188.951 2.27372C189.677 2.78176 190.252 3.42872 190.677 4.21857C191.102 5.00841 191.316 5.96496 191.316 7.0882H187.18C187.145 6.50872 187.022 6.02846 186.811 5.64743C186.601 5.2664 186.327 4.96872 185.982 4.75042C185.636 4.53212 185.244 4.37733 184.799 4.28604C184.354 4.19475 183.87 4.15109 183.342 4.15109C182.997 4.15109 182.652 4.18681 182.31 4.25826C181.965 4.3297 181.651 4.45671 181.37 4.63929C181.088 4.82186 180.858 5.0481 180.675 5.318C180.493 5.59186 180.401 5.9332 180.401 6.34996C180.401 6.73099 180.473 7.04057 180.62 7.27475C180.766 7.50892 181.048 7.72722 181.477 7.92965C181.902 8.1281 182.493 8.33052 183.247 8.52898C184.001 8.72743 184.986 8.98145 186.2 9.29104C186.561 9.36248 187.065 9.49346 187.708 9.68397C188.351 9.87449 188.99 10.1801 189.625 10.5969C190.26 11.0136 190.808 11.5733 191.273 12.2718C191.737 12.9704 191.967 13.8634 191.967 14.9509C191.967 15.84 191.796 16.6656 191.451 17.4276C191.106 18.1897 190.594 18.8486 189.915 19.4003C189.236 19.952 188.391 20.3846 187.383 20.6942C186.375 21.0038 185.212 21.1586 183.886 21.1586C182.814 21.1586 181.779 21.0276 180.77 20.7656C179.762 20.5037 178.873 20.0909 178.103 19.5273C177.333 18.9637 176.722 18.2492 176.265 17.376C175.809 16.5028 175.595 15.4709 175.615 14.2762H179.75C179.75 14.9271 179.869 15.4828 180.104 15.9353L180.108 15.9273Z" fill="white"></path><path d="M60.1465 23.3137L67.4099 42.7384H62.9765L61.5079 38.4121H54.2445L52.7204 42.7384H48.4219L55.7686 23.3137H60.1505H60.1465ZM60.3926 35.2289L57.9437 28.1004H57.8881L55.3558 35.2289H60.3886H60.3926Z" fill="white"></path><path d="M82.2494 23.3137V26.9057H72.8625V31.3947H80.9991V34.7129H72.8625V42.7384H68.5918V23.3137H82.2494Z" fill="white"></path><path d="M94.3475 23.3137C95.2167 23.3137 96.0026 23.4526 96.7011 23.7344C97.3997 24.0163 97.999 24.4013 98.4991 24.8894C98.9992 25.3776 99.3763 25.9452 99.6422 26.5882C99.9042 27.2312 100.035 27.9258 100.035 28.668C100.035 29.8111 99.7931 30.7994 99.3128 31.6329C98.8325 32.4664 98.0467 33.1015 96.9591 33.538V33.5936C97.4831 33.7405 97.9197 33.9627 98.265 34.2604C98.6103 34.5581 98.8921 34.9153 99.1064 35.3202C99.3247 35.729 99.4835 36.1775 99.5827 36.6657C99.6819 37.1539 99.7494 37.646 99.7851 38.1342C99.801 38.4438 99.8208 38.805 99.8407 39.2218C99.8566 39.6385 99.8883 40.0632 99.9359 40.4998C99.9796 40.9364 100.055 41.3492 100.154 41.7381C100.253 42.1271 100.404 42.4605 100.603 42.7304H96.332C96.0939 42.1152 95.951 41.3809 95.8954 40.5276C95.8399 39.6742 95.7605 38.8606 95.6493 38.0787C95.5025 37.0626 95.1969 36.3204 94.7245 35.848C94.2522 35.3757 93.4822 35.1416 92.4106 35.1416H88.1399V42.7304H83.8691V23.3058H94.3435L94.3475 23.3137ZM92.8234 32.1012C93.8037 32.1012 94.538 31.8829 95.0262 31.4463C95.5144 31.0098 95.7605 30.3033 95.7605 29.3229C95.7605 28.3425 95.5144 27.6956 95.0262 27.2669C94.538 26.8422 93.8037 26.6279 92.8234 26.6279H88.1438V32.0973H92.8234V32.1012Z" fill="white"></path><path d="M107.128 23.3137V42.7384H102.857V23.3137H107.128Z" fill="white"></path><path d="M122.759 28.4973C122.505 28.0885 122.188 27.7313 121.807 27.4217C121.426 27.1121 120.993 26.8739 120.513 26.6993C120.033 26.5286 119.529 26.4413 119.005 26.4413C118.044 26.4413 117.226 26.6279 116.556 27.0009C115.885 27.374 115.341 27.8702 114.924 28.4973C114.508 29.1244 114.202 29.8349 114.012 30.6326C113.821 31.4304 113.726 32.256 113.726 33.1093C113.726 33.9627 113.821 34.7208 114.012 35.4908C114.202 36.2608 114.508 36.9554 114.924 37.5706C115.341 38.1858 115.885 38.6819 116.556 39.055C117.226 39.4281 118.044 39.6147 119.005 39.6147C120.31 39.6147 121.33 39.2177 122.065 38.416C122.799 37.6182 123.248 36.5664 123.41 35.2606H127.546C127.439 36.4751 127.157 37.5746 126.705 38.5509C126.252 39.5273 125.653 40.3648 124.911 41.0554C124.164 41.746 123.295 42.27 122.299 42.6351C121.303 42.9963 120.203 43.1789 119.009 43.1789C117.52 43.1789 116.183 42.9209 114.996 42.4049C113.809 41.8889 112.805 41.1745 111.991 40.2695C111.174 39.3646 110.55 38.2969 110.114 37.0744C109.677 35.852 109.459 34.5303 109.459 33.1173C109.459 31.7043 109.677 30.3191 110.114 29.0768C110.55 27.8345 111.174 26.7509 111.991 25.8261C112.805 24.9013 113.809 24.175 114.996 23.6511C116.183 23.1232 117.52 22.8612 119.009 22.8612C120.08 22.8612 121.088 23.016 122.041 23.3256C122.994 23.6352 123.847 24.0837 124.597 24.6711C125.351 25.2625 125.97 25.9928 126.462 26.862C126.951 27.7313 127.26 28.7315 127.387 29.8547H123.252C123.18 29.3665 123.017 28.914 122.763 28.5092L122.759 28.4973Z" fill="white"></path><path d="M138.877 23.3137L146.14 42.7384H141.707L140.238 38.4121H132.975L131.451 42.7384H127.152L134.499 23.3137H138.881H138.877ZM139.123 35.2289L136.674 28.1004H136.619L134.086 35.2289H139.119H139.123Z" fill="white"></path></g></g><defs><clipPath id="clip0_1273_51040"><rect width="219.517" height="42.35" fill="white" transform="translate(0 0.824951)"></rect></clipPath><clipPath id="clip1_1273_51040"><rect width="41.4768" height="41.4768" fill="white" transform="translate(-0.0117188 1.20996)"></rect></clipPath><clipPath id="clip2_1273_51040"><rect width="143.549" height="42.35" fill="white" transform="translate(48.4219 0.824951)"></rect></clipPath></defs></svg>